<?xml version="1.0" encoding="UTF-8"?>
<svg width="500px" height="500px" viewBox="0 0 500 500" version="1.1" xmlns="http://www.w3.org/2000/svg" xmlns:xlink="http://www.w3.org/1999/xlink">
    <title>sun</title>
    <g id="Page" stroke="none" stroke-width="1" fill="none" fill-rule="evenodd">
        <g id="sun" fill-rule="nonzero">
            <path d="M250,500 C222.366597,500 196.054227,495.798683 171.06289,487.39605 C146.071552,478.993416 123.159217,467.147436 102.325884,451.858108 C81.4925502,436.56878 63.4312197,418.50745 48.1418919,397.674116 C32.8525641,376.840783 21.0065835,353.928448 12.6039501,328.93711 C4.2013167,303.945773 0,277.633403 0,250 C0,222.366597 4.2013167,196.054227 12.6039501,171.06289 C21.0065835,146.071552 32.8525641,123.159217 48.1418919,102.325884 C63.4312197,81.4925502 81.4925502,63.4312197 102.325884,48.1418919 C123.159217,32.8525641 146.071552,21.0065835 171.06289,12.6039501 C196.054227,4.2013167 222.366597,0 250,0 C277.633403,0 303.945773,4.2013167 328.93711,12.6039501 C353.928448,21.0065835 376.840783,32.8525641 397.674116,48.1418919 C418.50745,63.4312197 436.56878,81.4925502 451.858108,102.325884 C467.147436,123.159217 478.993416,146.071552 487.39605,171.06289 C495.798683,196.054227 500,222.366597 500,250 C500,277.633403 495.798683,303.945773 487.39605,328.93711 C478.993416,353.928448 467.147436,376.840783 451.858108,397.674116 C436.56878,418.50745 418.50745,436.56878 397.674116,451.858108 C376.840783,467.147436 353.928448,478.993416 328.93711,487.39605 C303.945773,495.798683 277.633403,500 250,500 Z" id="background" fill="#FFFFFF"></path>
            <path d="M249.721414,308.453222 C238.893278,308.453222 229.039674,305.811157 220.160603,300.527027 C211.281532,295.242897 204.221587,288.13964 198.980769,279.217256 C193.739951,270.294872 191.07623,260.462924 190.989605,249.721414 C190.90298,238.893278 193.501733,229.039674 198.785863,220.160603 C204.069993,211.281532 211.17325,204.199931 220.095634,198.9158 C229.018018,193.63167 238.893278,190.989605 249.721414,190.989605 C260.462924,190.989605 270.294872,193.63167 279.217256,198.9158 C288.13964,204.199931 295.264553,211.281532 300.591996,220.160603 C305.919439,229.039674 308.539848,238.893278 308.453222,249.721414 C308.366597,260.462924 305.659563,270.294872 300.332121,279.217256 C295.004678,288.13964 287.923077,295.242897 279.087318,300.527027 C270.251559,305.811157 260.462924,308.453222 249.721414,308.453222 Z M233.609148,165.002079 L233.609148,86 L265.83368,86 L265.83368,165.002079 L233.609148,165.002079 Z M320.927235,201.384615 L298.058212,178.515593 L354.191268,122.382536 L377.060291,145.251559 L320.927235,201.384615 Z M334.440748,265.83368 L334.440748,233.609148 L413.442827,233.609148 L413.442827,265.83368 L334.440748,265.83368 Z M354.191268,377.060291 L298.058212,320.927235 L320.927235,298.058212 L377.060291,354.191268 L354.191268,377.060291 Z M233.609148,413.442827 L233.609148,334.440748 L265.83368,334.440748 L265.83368,413.442827 L233.609148,413.442827 Z M145.251559,377.060291 L122.382536,354.191268 L178.515593,298.058212 L201.384615,320.927235 L145.251559,377.060291 Z M86,265.83368 L86,233.609148 L165.002079,233.609148 L165.002079,265.83368 L86,265.83368 Z M178.515593,201.384615 L122.382536,145.251559 L145.251559,122.382536 L201.384615,178.515593 L178.515593,201.384615 Z" id="path" fill="#222222"></path>
        </g>
    </g>
</svg>