<?xml version="1.0" encoding="UTF-8"?>
<svg width="500px" height="500px" viewBox="0 0 500 500" version="1.1" xmlns="http://www.w3.org/2000/svg" xmlns:xlink="http://www.w3.org/1999/xlink">
    <title>xmark</title>
    <g id="Page" stroke="none" stroke-width="1" fill="none" fill-rule="evenodd">
        <g id="xmark">
            <path d="M250,500 C222.366597,500 196.054227,495.798683 171.06289,487.39605 C146.071552,478.993416 123.159217,467.147436 102.325884,451.858108 C81.4925502,436.56878 63.4312197,418.50745 48.1418919,397.674116 C32.8525641,376.840783 21.0065835,353.928448 12.6039501,328.93711 C4.2013167,303.945773 0,277.633403 0,250 C0,222.366597 4.2013167,196.054227 12.6039501,171.06289 C21.0065835,146.071552 32.8525641,123.159217 48.1418919,102.325884 C63.4312197,81.4925502 81.4925502,63.4312197 102.325884,48.1418919 C123.159217,32.8525641 146.071552,21.0065835 171.06289,12.6039501 C196.054227,4.2013167 222.366597,0 250,0 C277.633403,0 303.945773,4.2013167 328.93711,12.6039501 C353.928448,21.0065835 376.840783,32.8525641 397.674116,48.1418919 C418.50745,63.4312197 436.56878,81.4925502 451.858108,102.325884 C467.147436,123.159217 478.993416,146.071552 487.39605,171.06289 C495.798683,196.054227 500,222.366597 500,250 C500,277.633403 495.798683,303.945773 487.39605,328.93711 C478.993416,353.928448 467.147436,376.840783 451.858108,397.674116 C436.56878,418.50745 418.50745,436.56878 397.674116,451.858108 C376.840783,467.147436 353.928448,478.993416 328.93711,487.39605 C303.945773,495.798683 277.633403,500 250,500 Z" id="background" fill="#3A3A3A" fill-rule="nonzero"></path>
            <polygon id="path" fill="#FFFFFF" points="313.636175 140 361.453222 187.817048 298.187 250.705 360.933472 313.076923 313.116424 360.893971 250.226 298.379 187.336798 360.893971 139.519751 313.076923 202.266 250.705 139 187.817048 186.817048 140 250.226 203.031"></polygon>
        </g>
    </g>
</svg>